<svg xmlns="http://www.w3.org/2000/svg" viewBox="0 0 24 24"><defs/><path fill="#fc4548" d="M19.36 24H4.64C2.08 24 0 21.92 0 19.36V4.64C0 2.08 2.08 0 4.64 0h14.72C21.92 0 24 2.08 24 4.64v14.72c0 2.56-2.08 4.64-4.64 4.64z"/><path fill="#fff" d="M16.91 6.3L14.7 3.35c-.02-.02-.04-.03-.06-.05-.02-.02-.03-.04-.05-.05-.01-.01-.02-.01-.03-.01-.03-.02-.06-.03-.1-.05-.03-.01-.05-.02-.08-.03-.03-.01-.07-.01-.1-.01h-.09l-.09.03c-.03.01-.06.02-.09.04.01.03 0 .03-.01.03-.02.01-.03.04-.05.05-.02.02-.04.03-.05.05L11.69 6.3a.498.498 0 00.4.8c.15 0 .3-.07.4-.2l1.32-1.76v1.79c0 .28.22.5.5.5s.5-.22.5-.5V5.17l1.3 1.73c.1.13.25.2.4.2.1 0 .21-.03.3-.1.22-.17.26-.48.1-.7zm-2.6 4.63c.28 0 .5-.22.5-.5v-2c0-.28-.22-.5-.5-.5s-.5.22-.5.5v2c0 .28.22.5.5.5zm.5 7.16v-6.16c0-.28-.22-.5-.5-.5s-.5.22-.5.5v.1a3.498 3.498 0 00-2.5-1.06c-1.93 0-3.5 1.57-3.5 3.5v4.03l-1.33-1.78a.507.507 0 00-.7-.1c-.22.17-.27.48-.1.7l2.21 2.95c.01.02.03.02.04.04.02.02.03.05.06.06.01.01.02 0 .03.01.08.05.17.09.27.09s.18-.04.27-.09c.01-.01.02 0 .03-.01l.06-.06c.01-.01.03-.02.04-.04l2.21-2.95c.17-.22.12-.53-.1-.7a.507.507 0 00-.7.1l-1.29 1.72v-3.97a2.5 2.5 0 015 0v3.62c-.58.21-1 .76-1 1.41 0 .83.67 1.5 1.5 1.5s1.5-.67 1.5-1.5c0-.65-.42-1.2-1-1.41z"/></svg>