<svg xmlns="http://www.w3.org/2000/svg" viewBox="0 0 12 18"><defs/><g fill="#FFF" fill-rule="nonzero"><path d="M11.91 3.3L9.7.35C9.68.33 9.66.32 9.64.3 9.62.28 9.61.26 9.59.25 9.58.24 9.57.24 9.56.24 9.53.22 9.5.21 9.46.19 9.43.18 9.41.17 9.38.16c-.03-.01-.07-.01-.1-.01h-.09L9.1.18c-.03.01-.06.02-.09.04.01.03 0 .03-.01.03-.02.01-.03.04-.05.05-.02.02-.04.03-.05.05L6.69 3.3a.498.498 0 00.4.8c.15 0 .3-.07.4-.2l1.32-1.76v1.79c0 .28.22.5.5.5s.5-.22.5-.5V2.17l1.3 1.73c.1.13.25.2.4.2.1 0 .21-.03.3-.1.22-.17.26-.48.1-.7zM9.31 7.93c.28 0 .5-.22.5-.5v-2c0-.28-.22-.5-.5-.5s-.5.22-.5.5v2c0 .28.22.5.5.5zM9.81 15.09v-3.62-.03-2.51c0-.28-.22-.5-.5-.5s-.5.22-.5.5v.1a3.498 3.498 0 00-2.5-1.06c-1.93 0-3.5 1.57-3.5 3.5v4.03l-1.33-1.78a.507.507 0 00-.7-.1c-.22.17-.27.48-.1.7l2.21 2.95c.01.02.03.02.04.04.02.02.03.05.06.06.01.01.02 0 .03.01.08.05.17.09.27.09s.18-.04.27-.09c.01-.01.02 0 .03-.01l.06-.06c.01-.01.03-.02.04-.04l2.21-2.95c.17-.22.12-.53-.1-.7a.507.507 0 00-.7.1l-1.29 1.72v-3.97a2.5 2.5 0 015 0v3.62c-.58.21-1 .76-1 1.41 0 .83.67 1.5 1.5 1.5s1.5-.67 1.5-1.5c0-.65-.42-1.2-1-1.41z"/></g></svg>